#!OML:ASF F:\VICON\USERDATA\INSTALL\rory3\rory3.ASF
:FULLY-SPECIFIED
:DEGREES
99
root 9.18438 17.9985 -5.13388 -8.72641 -48.6284 10.721
lowerback 12.3607 0.588843 -6.79562
upperback 0.913258 -0.209682 -0.322677
thorax -5.96011 0.05727 3.53442
lowerneck -20.9101 -3.17465 -10.3024
upperneck 26.4302 -2.87895 5.92265
head 12.4919 -1.59445 3.51436
rclavicle -3.23025e-014 -7.95139e-016
rhumerus -37.7038 -12.5271 -76.9894
rradius 33.1531
rwrist 6.65148
rhand -12.8546 8.99479
rfingers 7.12502
rthumb 13.2333 -20.5652
lclavicle -3.23025e-014 -7.95139e-016
lhumerus -36.9359 9.15418 80.1498
lradius 36.9053
lwrist -7.26101
lhand -15.8613 25.969
lfingers 7.12502
lthumb 10.334 55.6951
rfemur -24.8989 -1.87182 13.3713
rtibia 75.0414
rfoot -5.30427 0.636386
rtoes 6.54152
lfemur 3.0427 -1.94815 -32.2712
ltibia 4.27545
lfoot -2.67619 -7.97467
ltoes 6.26413
100
root 9.10175 17.9828 -5.05925 -8.56376 -48.5496 10.488
lowerback 12.4501 0.488897 -6.74514
upperback 0.882449 -0.333821 -0.185578
thorax -6.02838 0.000522082 3.67374
lowerneck -20.8372 -3.23326 -10.3815
upperneck 26.2808 -2.93768 5.92289
head 12.4255 -1.62592 3.51394
rclavicle 8.3738e-014 1.98785e-015
rhumerus -37.7482 -12.9825 -76.5213
rradius 32.9647
rwrist 7.94642
rhand -13.0674 8.7017
rfingers 7.12502
rthumb 13.0283 -20.8714
lclavicle 8.3738e-014 1.98785e-015
lhumerus -36.83 9.0678 80.225
lradius 37.4032
lwrist -6.95439
lhand -16.0982 26.4916
lfingers 7.12502
lthumb 10.1054 56.229
rfemur -25.9584 -1.72183 13.6543
rtibia 74.5067
rfoot -6.01785 0.349579
rtoes 6.1875
lfemur 2.41488 -2.078 -32.1472
ltibia 6.31931
lfoot -4.00477 -7.75537
ltoes 5.78552
101
root 9.0162 17.9658 -4.98379 -8.52172 -48.5223 10.2939
lowerback 12.4886 0.403808 -6.53103
upperback 0.962163 -0.419785 -0.220897
thorax -5.95657 -0.0524224 3.5302
lowerneck -20.8569 -3.38111 -10.5669
upperneck 26.1747 -3.19584 6.30847
head 12.4229 -1.70544 3.64935
rclavicle 4.61677e-014 -1.11319e-014
rhumerus -37.7208 -13.3698 -76.4555
rradius 32.8777
rwrist 8.70707
rhand -13.0761 8.66673
rfingers 7.12502
rthumb 13.0199 -20.907
lclavicle 4.61677e-014 -1.11319e-014
lhumerus -36.6213 8.72551 80.1781
lradius 37.8936
lwrist -6.60594
lhand -16.7346 26.72
lfingers 7.12502
lthumb 9.49142 56.4862
rfemur -26.8386 -1.50063 13.8931
rtibia 73.7986
rfoot -6.7623 0.125802
rtoes 6.76837
lfemur 2.23237 -2.12774 -32.0448
ltibia 7.70476
lfoot -4.93722 -7.45106
ltoes 5.62505
102
root 8.92697 17.9455 -4.9052 -8.77037 -48.4313 10.5083
lowerback 12.3565 0.287138 -6.38315
upperback 1.12304 -0.557942 -0.50242
thorax -5.70073 -0.140685 3.17001
lowerneck -21.0625 -3.43927 -10.5738
upperneck 26.211 -3.39928 6.78086
head 12.5072 -1.73155 3.80211
rclavicle -9.55657e-014 5.96354e-015
rhumerus -37.5526 -13.7526 -76.7994
rradius 32.798
rwrist 9.01242
rhand -13.0127 8.79123
rfingers 7.12502
rthumb 13.0809 -20.7786
lclavicle -9.55657e-014 5.96354e-015
lhumerus -36.2529 8.04573 79.9791
lradius 38.3691
lwrist -5.59107
lhand -17.2615 26.7134
lfingers 7.12502
lthumb 8.98305 56.5022
rfemur -27.652 -1.39834 13.7679
rtibia 72.9324
rfoot -7.37752 0.0878656
rtoes 6.61446
lfemur 2.18804 -2.20126 -32.2438
ltibia 8.84099
lfoot -5.7495 -7.20415
ltoes 6.07838
103
root 8.83791 17.9245 -4.83051 -9.0861 -48.2873 10.9085
lowerback 12.2784 0.187921 -6.63266
upperback 1.21147 -0.723672 -0.633908
thorax -5.54541 -0.225606 3.19802
lowerneck -21.2281 -3.3949 -10.4989
upperneck 26.2178 -3.38831 6.92973
head 12.5425 -1.6966 3.85024
rclavicle 3.95581e-014 9.14409e-015
rhumerus -37.4482 -13.8659 -76.9645
rradius 32.8708
rwrist 9.10581
rhand -12.8402 8.73084
rfingers 7.12502
rthumb 13.2472 -20.8282
lclavicle 3.95581e-014 9.14409e-015
lhumerus -35.8861 7.58295 79.9016
lradius 38.6469
lwrist -4.92351
lhand -17.5431 25.7523
lfingers 7.12502
lthumb 8.71124 55.5525
rfemur -28.5243 -1.42364 13.5333
rtibia 71.9137
rfoot -7.89271 -0.180978
rtoes 6.17252
lfemur 2.31899 -2.3163 -32.573
ltibia 9.45978
lfoot -6.17708 -7.23383
ltoes 7.53342
